<?xml version="1.0" standalone="no"?><!DOCTYPE svg PUBLIC "-//W3C//DTD SVG 1.1//EN" "http://www.w3.org/Graphics/SVG/1.1/DTD/svg11.dtd"><svg t="1712500426992" class="icon" viewBox="0 0 1024 1024" version="1.1" xmlns="http://www.w3.org/2000/svg" p-id="4273" xmlns:xlink="http://www.w3.org/1999/xlink" width="200" height="200"><path d="M256 96a128 128 0 0 1 43.904 248.32l-6.656-13.888c72.064 154.496 176.512 232.32 316.16 237.632h36.928a128 128 0 1 1-4.032 64.192 2494.976 2494.976 0 0 1-38.4-0.384c-131.328-5.888-237.12-67.008-315.84-181.184v225.344a128 128 0 1 1-64.064 0V347.968A128 128 0 0 1 256 96z m0 640a64 64 0 1 0 0 128 64 64 0 0 0 0-128z m512-192a64 64 0 1 0 0 128 64 64 0 0 0 0-128z m-512-384a64 64 0 1 0 0 128 64 64 0 0 0 0-128z" fill="#2c2c2c" p-id="4274"></path></svg>