<svg height="16" viewBox="0 0 16 16" width="16" xmlns="http://www.w3.org/2000/svg"><path d="m9 3c2.7614 0 5 2.23858 5 5v3.2676c.5978.3458 1 .9921 1 1.7324 0 1.1046-.8954 2-2 2s-2-.8954-2-2c0-.7403.4022-1.3866 1-1.7324v-3.2676c0-1.65685-1.3431-3-3-3-.55228 0-1-.44772-1-1s.44772-1 1-1zm-5 5c.55228 0 1 .44771 1 1v2.2676c.5978.3458 1 .9921 1 1.7324 0 1.1046-.89543 2-2 2s-2-.8954-2-2c0-.7403.4022-1.3866 1-1.7324v-2.2676c0-.55228.44772-1 1-1zm-2.70711-6.70711c.36048923-.36048092.92771645-.38821022 1.32001152-.08318791l.09420848.08318791 1.29288925 1.2929 1.29289075-1.2929c.39053-.390521 1.02369-.390521 1.41422 0 .36048.36048923.38820923.92771645.08318769 1.32001152l-.08318769.09420848-1.2929 1.29288925 1.2929 1.29289075c.39052.39053.39052 1.02369 0 1.41422-.36048923.36048-.92771645.38820923-1.32001152.08318769l-.09420848-.08318769-1.29289075-1.2929-1.29288925 1.2929c-.39053.39052-1.02369.39052-1.41422 0-.36048092-.36048923-.38821022-.92771645-.08318791-1.32001152l.08318791-.09420848 1.2929-1.29289075-1.2929-1.29288925c-.390521-.39053-.390521-1.02369 0-1.41422z" fill-rule="evenodd"/></svg>