<?xml version="1.0" standalone="no"?><!DOCTYPE svg PUBLIC "-//W3C//DTD SVG 1.1//EN" "http://www.w3.org/Graphics/SVG/1.1/DTD/svg11.dtd"><svg t="1712566327543" class="icon" viewBox="0 0 1024 1024" version="1.1" xmlns="http://www.w3.org/2000/svg" p-id="7579" xmlns:xlink="http://www.w3.org/1999/xlink" width="200" height="200"><path d="M512 128a85.333333 85.333333 0 0 1 85.333333 85.333333v53.333334h162.218667a117.333333 117.333333 0 0 1 117.12 110.165333l0.213333 7.168v469.333333a32 32 0 0 1-54.613333 22.613334l-98.261333-98.261334a53.333333 53.333333 0 0 0-37.717334-15.616H375.552a117.333333 117.333333 0 0 1-117.333333-117.333333v-151.168a85.333333 85.333333 0 0 0-50.901334 24.448l-27.178666 27.178667A30.549333 30.549333 0 0 1 128 523.605333V213.333333a85.333333 85.333333 0 0 1 85.333333-85.333333h298.666667z m85.333333 279.722667a85.333333 85.333333 0 0 1-85.333333 85.333333l-189.781333-0.042667v151.722667c0 27.605333 20.992 50.346667 47.872 53.077333l5.461333 0.256h310.741333l8.448 0.298667a117.333333 117.333333 0 0 1 74.496 34.090667l43.648 43.562666V384c0-29.44-23.893333-53.333333-53.333333-53.333333H597.333333v77.056zM512 192H213.333333a21.333333 21.333333 0 0 0-21.333333 21.333333v236.288l6.314667-3.498666a149.333333 149.333333 0 0 1 60.202666-16.810667l9.130667-0.256H512a21.333333 21.333333 0 0 0 21.333333-21.333333V213.333333a21.333333 21.333333 0 0 0-21.333333-21.333333z" p-id="7580"></path></svg>